<svg xmlns="http://www.w3.org/2000/svg" x="0px" y="0px" width="100" height="100" viewBox="0,0,256,256">
<g fill="#ffffff" fill-rule="nonzero" stroke="none" stroke-width="1" stroke-linecap="butt" stroke-linejoin="miter" stroke-miterlimit="10" stroke-dasharray="" stroke-dashoffset="0" font-family="none" font-weight="none" font-size="none" text-anchor="none" style="mix-blend-mode: normal"><g transform="scale(3.2,3.2)"><path d="M40,7c-18.16406,0 -33,13.38672 -33,30c0,9.37109 4.79688,17.67188 12.16797,23.16016c-0.9375,3.35938 -2.48828,5.53125 -3.94922,7.11719c-0.76953,0.83984 -1.50781,1.53516 -2.10547,2.24219c-0.59375,0.70703 -1.11328,1.49609 -1.11328,2.48047v1h1c6.82031,0 13.66797,-4.20703 17.8125,-7.21484c2.92188,0.77344 5.99609,1.21484 9.1875,1.21484c18.16406,0 33,-13.38672 33,-30c0,-16.61328 -14.83594,-30 -33,-30zM40,9c17.18359,0 31,12.58203 31,28c0,15.41797 -13.81641,28 -31,28c-3.17969,0 -6.24609,-0.43359 -9.13281,-1.23828l-0.46875,-0.13281l-0.39453,0.29297c-3.59766,2.64063 -9.625,6.17578 -15.30078,6.82422c0.48438,-0.5625 1.19141,-1.24609 1.99219,-2.11719c1.65234,-1.79687 3.62109,-4.39844 4.62109,-8.51562l0.16406,-0.66016l-0.55859,-0.39062c-7.27344,-5.14453 -11.92187,-13.10937 -11.92187,-22.0625c0,-15.41797 13.81641,-28 31,-28zM40.05859,12c-0.55469,0 -1.00391,0.44531 -1.00391,1c0,0.55078 0.44531,1 0.99609,1c0.55469,0 1.00391,-0.44531 1.00391,-1c0,-0.55078 -0.44531,-1 -0.99609,-1zM34.79297,12.51172c-0.07031,-0.00391 -0.13672,0.00391 -0.19922,0.01953c-0.54297,0.10547 -0.89453,0.62891 -0.78906,1.17188c0.10547,0.54297 0.63281,0.89453 1.17578,0.78516c0.53906,-0.10547 0.89063,-0.62891 0.78516,-1.17187c-0.09375,-0.46484 -0.5,-0.80469 -0.97266,-0.80469zM45.34375,12.53125c-0.48437,-0.01562 -0.91016,0.32422 -1.00391,0.80078c-0.10937,0.54297 0.23828,1.07031 0.78125,1.17969c0.54297,0.10547 1.07031,-0.24219 1.17578,-0.78516c0.10938,-0.54297 -0.23828,-1.07031 -0.78125,-1.17969c-0.05469,-0.00781 -0.11328,-0.01562 -0.17187,-0.01562zM29.72656,14.03516c-0.13281,0 -0.26562,0.02734 -0.39062,0.07422c-0.24609,0.10156 -0.44141,0.29688 -0.54297,0.54297c-0.10156,0.24609 -0.10156,0.51953 0,0.76563c0.21094,0.51172 0.79297,0.75391 1.30469,0.54297c0.51172,-0.21094 0.75391,-0.79297 0.54297,-1.30469c-0.15234,-0.37109 -0.51172,-0.61328 -0.91406,-0.62109zM50.40625,14.07813c-0.41406,-0.01172 -0.78906,0.23438 -0.94922,0.61328c-0.10156,0.24609 -0.10156,0.51953 0,0.76563c0.09766,0.24609 0.29297,0.44141 0.53906,0.54297c0.24609,0.10156 0.51953,0.10156 0.76563,0c0.24609,-0.09766 0.44141,-0.29297 0.54297,-0.53906c0.21094,-0.50781 -0.03125,-1.09375 -0.53906,-1.30469c-0.11328,-0.05078 -0.23828,-0.07812 -0.35937,-0.07812zM25.05859,16.51953c-0.20312,0 -0.39844,0.05859 -0.57031,0.16797c-0.45703,0.30859 -0.58203,0.92969 -0.27344,1.39063c0.30469,0.45703 0.92578,0.58203 1.38281,0.27734c0.46094,-0.30469 0.58594,-0.92578 0.27734,-1.38672c-0.17969,-0.27344 -0.48828,-0.44141 -0.81641,-0.44922zM55.0625,16.57813c-0.33984,-0.00781 -0.66016,0.16016 -0.84766,0.44141c-0.30859,0.46094 -0.1875,1.08203 0.26953,1.38672c0.22266,0.14844 0.49219,0.20313 0.75391,0.15234c0.25781,-0.05078 0.48828,-0.20312 0.63672,-0.42187c0.30859,-0.46094 0.18359,-1.08203 -0.27344,-1.38672c-0.16016,-0.10937 -0.34375,-0.16797 -0.53906,-0.17187zM20.96484,19.87109c-0.27344,-0.00391 -0.53125,0.10156 -0.72656,0.28906c-0.39062,0.39063 -0.39062,1.02344 0,1.41797c0.39063,0.39063 1.02344,0.39063 1.41406,0c0.39063,-0.39062 0.39063,-1.02344 0.00391,-1.41406c-0.1875,-0.18359 -0.43359,-0.28906 -0.69141,-0.29297zM59.14453,19.94922c-0.26953,-0.00781 -0.52734,0.09766 -0.72266,0.28906c-0.39062,0.39063 -0.39062,1.02344 0,1.41406c0.18359,0.1875 0.44141,0.29297 0.70703,0.29297c0.26563,0.00391 0.51953,-0.10156 0.70703,-0.28906c0.39063,-0.39062 0.39063,-1.02344 0.00391,-1.41797c-0.1875,-0.18359 -0.43359,-0.28516 -0.69531,-0.28906zM40,22c-2.19922,0 -4,1.80078 -4,4c0,2.19922 1.80078,4 4,4c2.19922,0 4,-1.80078 4,-4c0,-2.19922 -1.80078,-4 -4,-4zM17.60156,23.95313c-0.33984,-0.00391 -0.66016,0.16016 -0.85156,0.44141c-0.14844,0.22266 -0.20312,0.49219 -0.15234,0.75391c0.05078,0.25781 0.20703,0.48828 0.42578,0.63672c0.21875,0.14844 0.49219,0.20313 0.75,0.15234c0.26172,-0.05078 0.49219,-0.20703 0.63672,-0.42578c0.30859,-0.45703 0.1875,-1.07812 -0.26953,-1.38672c-0.16016,-0.10547 -0.34766,-0.16406 -0.53906,-0.17187zM40,24c1.11719,0 2,0.88281 2,2c0,1.11719 -0.88281,2 -2,2c-1.11719,0 -2,-0.88281 -2,-2c0,-1.11719 0.88281,-2 2,-2zM62.49609,24.04688c-0.20312,-0.00391 -0.40234,0.05469 -0.57031,0.16797c-0.46094,0.30469 -0.58203,0.92578 -0.27734,1.38281c0.30469,0.46094 0.92578,0.58594 1.38281,0.28125c0.46094,-0.30469 0.58594,-0.92578 0.28125,-1.38672c-0.18359,-0.27344 -0.48828,-0.44141 -0.81641,-0.44531zM15.09766,28.61719c-0.41016,-0.01172 -0.78516,0.23438 -0.94531,0.61719c-0.10156,0.24219 -0.10156,0.51953 0,0.76563c0.09766,0.24219 0.29297,0.4375 0.53906,0.54297c0.50781,0.21094 1.09375,-0.03125 1.30859,-0.54297c0.10156,-0.24219 0.10156,-0.51953 0,-0.76562c-0.10156,-0.24219 -0.29687,-0.4375 -0.54297,-0.54297c-0.11328,-0.04687 -0.23437,-0.07031 -0.35937,-0.07422zM64.97266,28.71875c-0.13281,0 -0.26562,0.02734 -0.39062,0.07813c-0.50781,0.21094 -0.75391,0.79297 -0.54297,1.30469c0.10156,0.24609 0.29688,0.44141 0.53906,0.54297c0.24609,0.10156 0.52344,0.10156 0.76563,0c0.51172,-0.21094 0.75391,-0.79297 0.54688,-1.30469c-0.15625,-0.37109 -0.51562,-0.61328 -0.91797,-0.62109zM37,33v18h6v-18zM13.55859,33.67969c-0.48828,-0.01562 -0.91406,0.32422 -1.01172,0.80469c-0.05078,0.25781 0,0.52734 0.14844,0.75c0.14844,0.21875 0.375,0.375 0.63672,0.42578c0.53906,0.10938 1.06641,-0.24219 1.17578,-0.78516c0.10938,-0.53906 -0.24219,-1.06641 -0.78516,-1.17578c-0.05469,-0.01172 -0.10937,-0.01953 -0.16406,-0.01953zM66.5,33.78906c-0.07031,0 -0.13672,0.00391 -0.20312,0.01953c-0.25781,0.05078 -0.48828,0.20313 -0.63672,0.42188c-0.14453,0.22266 -0.19922,0.49219 -0.14844,0.75391c0.10547,0.53906 0.63281,0.89063 1.17578,0.78516c0.53906,-0.10547 0.89063,-0.63281 0.78516,-1.17578c-0.09375,-0.46484 -0.5,-0.80078 -0.97266,-0.80469zM39,35h2v14h-2zM13,38.94531c-0.55078,0 -1,0.44531 -1,0.99609c0,0.55469 0.44531,1.00391 1,1.00391c0.55078,0 1,-0.44531 1,-0.99609c0,-0.55469 -0.44531,-1.00391 -1,-1.00391zM67,39.05078c-0.55078,0 -0.99609,0.44922 -1,1c0,0.55078 0.44922,1 1,1c0.55078,0.00391 1,-0.44531 1,-0.99609c0.00391,-0.26562 -0.10156,-0.51953 -0.28906,-0.70703c-0.1875,-0.1875 -0.44531,-0.29687 -0.71094,-0.29687zM14.26563,43.78125c-0.13672,-0.00391 -0.26562,0.02344 -0.39062,0.07422c-0.24609,0.10156 -0.44141,0.29688 -0.53906,0.54297c-0.10156,0.24609 -0.10156,0.51953 0,0.76563c0.10156,0.24609 0.29688,0.44141 0.54297,0.53906c0.24609,0.10156 0.51953,0.10156 0.76563,0c0.51172,-0.21484 0.75,-0.80078 0.53906,-1.30859c-0.15625,-0.37109 -0.51953,-0.61328 -0.91797,-0.61328zM65.76563,43.78125c-0.41406,-0.01172 -0.78906,0.23438 -0.94922,0.61328c-0.21094,0.51172 0.03125,1.09766 0.53906,1.30859c0.50781,0.21094 1.09375,-0.02734 1.30469,-0.53516c0.10547,-0.24609 0.10547,-0.52344 0.00391,-0.76953c-0.10156,-0.24219 -0.29687,-0.4375 -0.53906,-0.53906c-0.11719,-0.05078 -0.23828,-0.07422 -0.35937,-0.07812zM62.80078,48.3125c-0.33984,-0.00781 -0.66016,0.16016 -0.84766,0.44141c-0.30859,0.46094 -0.1875,1.08203 0.26953,1.38672c0.21875,0.14844 0.49219,0.20313 0.75,0.15234c0.26172,-0.05078 0.49219,-0.20312 0.63672,-0.42187c0.30859,-0.46094 0.1875,-1.08203 -0.26953,-1.38672c-0.16016,-0.10937 -0.34766,-0.16797 -0.53906,-0.17187zM17.23047,48.31641c-0.20312,0 -0.40234,0.05859 -0.57031,0.16797c-0.21875,0.14844 -0.37109,0.37891 -0.42187,0.64063c-0.05078,0.25781 0.00391,0.53125 0.15234,0.75c0.14453,0.21875 0.375,0.37109 0.63672,0.42188c0.26172,0.05078 0.53125,-0.00391 0.75,-0.15234c0.45703,-0.30469 0.57813,-0.92578 0.26953,-1.38281c-0.17969,-0.27734 -0.48828,-0.44141 -0.81641,-0.44531zM20.88672,52.05469c-0.26953,-0.00391 -0.53125,0.10156 -0.72266,0.28906c-0.39062,0.39063 -0.39062,1.02344 -0.00391,1.41797c0.39063,0.39063 1.02344,0.39063 1.41797,0c0.39063,-0.39062 0.39063,-1.02344 0,-1.41406c-0.18359,-0.18359 -0.42969,-0.28906 -0.69141,-0.29297zM59.07031,52.12891c-0.26953,-0.00391 -0.53125,0.10156 -0.72266,0.29297c-0.1875,0.18359 -0.29297,0.44141 -0.29297,0.70703c-0.00391,0.26563 0.10156,0.51953 0.28906,0.70703c0.39063,0.39063 1.02344,0.39063 1.41797,0.00391c0.39063,-0.39062 0.39063,-1.02344 0,-1.41797c-0.18359,-0.18359 -0.42969,-0.28906 -0.69141,-0.29297zM54.96875,55.48438c-0.20312,-0.00391 -0.39844,0.05469 -0.56641,0.16406c-0.46094,0.30469 -0.58594,0.92578 -0.27734,1.38672c0.30469,0.46094 0.92578,0.58594 1.38672,0.27734c0.45703,-0.30469 0.58203,-0.92578 0.27734,-1.38672c-0.18359,-0.27344 -0.48828,-0.44141 -0.82031,-0.44141zM50.29297,57.96875c-0.13672,0 -0.26953,0.02344 -0.39062,0.07422c-0.24609,0.10156 -0.44141,0.29688 -0.54687,0.53906c-0.10156,0.24609 -0.10156,0.52344 0,0.76563c0.10156,0.24609 0.29688,0.44141 0.53906,0.54297c0.24609,0.10156 0.52344,0.10156 0.76563,0c0.51172,-0.20703 0.75391,-0.79297 0.54297,-1.30078c-0.15234,-0.375 -0.51172,-0.61719 -0.91016,-0.62109zM34.70703,59.46875c-0.48828,-0.01172 -0.91016,0.32422 -1.00781,0.80078c-0.10937,0.54297 0.24219,1.07031 0.78516,1.17969c0.53906,0.10938 1.06641,-0.24219 1.17578,-0.78125c0.10938,-0.54297 -0.24219,-1.07031 -0.78516,-1.17969c-0.05469,-0.01172 -0.10937,-0.01953 -0.16797,-0.01953zM45.21875,59.49609c-0.06641,0 -0.13281,0.00391 -0.19922,0.01953c-0.25781,0.05078 -0.48828,0.20313 -0.63672,0.42188c-0.14844,0.22266 -0.20312,0.49219 -0.14844,0.75c0.10547,0.54297 0.62891,0.89453 1.17188,0.78906c0.54297,-0.10547 0.89453,-0.63281 0.78906,-1.17578c-0.09375,-0.46484 -0.5,-0.80078 -0.97656,-0.80469zM39.94922,60c-0.55078,0 -1,0.44922 -1,1c-0.00391,0.55078 0.44531,1 0.99609,1c0.26563,0.00391 0.51953,-0.10156 0.70703,-0.28906c0.1875,-0.1875 0.29688,-0.44531 0.29688,-0.71094c0,-0.55078 -0.44922,-0.99609 -1,-1z"></path></g></g>
</svg>