<svg width="74" height="100" viewBox="0 0 74 100" fill="none" xmlns="http://www.w3.org/2000/svg">
<g clip-path="url(#clip0_1_490)">
<mask id="mask0_1_490" style="mask-type:luminance" maskUnits="userSpaceOnUse" x="0" y="0" width="74" height="100">
<path d="M74 0H0V100H74V0Z" fill="white"/>
</mask>
<g mask="url(#mask0_1_490)">
<path d="M0 58.75H74V44.5833H0V58.75Z" fill="#101416"/>
<path d="M0 38.75H74V24.5833H0V38.75Z" fill="#101416"/>
<path d="M0 78.75H74V64.5833H0V78.75Z" fill="#101416"/>
<path d="M61.5795 26.6666C64.3641 26.6666 66.6249 28.9071 66.6249 31.6666C66.6249 34.4261 64.3641 36.6666 61.5795 36.6666C58.7949 36.6666 56.534 34.4261 56.534 31.6666C56.534 28.9071 58.7949 26.6666 61.5795 26.6666Z" fill="#ED854A"/>
<path d="M39.5477 26.6666C42.3322 26.6666 44.5931 28.9071 44.5931 31.6666C44.5931 34.4261 42.3322 36.6666 39.5477 36.6666C36.7631 36.6666 34.5022 34.4261 34.5022 31.6666C34.5022 28.9071 36.7631 26.6666 39.5477 26.6666Z" fill="#57AC84"/>
<path d="M17.5159 26.6666C20.3004 26.6666 22.5613 28.9071 22.5613 31.6666C22.5613 34.4261 20.3004 36.6666 17.5159 36.6666C14.7313 36.6666 12.4704 34.4261 12.4704 31.6666C12.4704 28.9071 14.7313 26.6666 17.5159 26.6666Z" fill="#ED854A"/>
<path d="M-4.51598 26.6666C-1.73139 26.6666 0.529477 28.9071 0.529477 31.6666C0.529477 34.4261 -1.73139 36.6666 -4.51598 36.6666C-7.30056 36.6666 -9.56143 34.4261 -9.56143 31.6666C-9.56143 28.9071 -7.30056 26.6666 -4.51598 26.6666Z" fill="#ED854A"/>
<path d="M61.5795 46.6666C64.3641 46.6666 66.6249 48.9071 66.6249 51.6666C66.6249 54.4261 64.3641 56.6666 61.5795 56.6666C58.7949 56.6666 56.534 54.4261 56.534 51.6666C56.534 48.9071 58.7949 46.6666 61.5795 46.6666Z" fill="#4A8AF7"/>
<path d="M39.5477 46.6666C42.3322 46.6666 44.5931 48.9071 44.5931 51.6666C44.5931 54.4261 42.3322 56.6666 39.5477 56.6666C36.7631 56.6666 34.5022 54.4261 34.5022 51.6666C34.5022 48.9071 36.7631 46.6666 39.5477 46.6666Z" fill="#4A8AF7"/>
<path d="M17.5159 46.6666C20.3004 46.6666 22.5613 48.9071 22.5613 51.6666C22.5613 54.4261 20.3004 56.6666 17.5159 56.6666C14.7313 56.6666 12.4704 54.4261 12.4704 51.6666C12.4704 48.9071 14.7313 46.6666 17.5159 46.6666Z" fill="#57AC84"/>
<path d="M-4.51598 46.6666C-1.73139 46.6666 0.529477 48.9071 0.529477 51.6666C0.529477 54.4261 -1.73139 56.6666 -4.51598 56.6666C-7.30056 56.6666 -9.56143 54.4261 -9.56143 51.6666C-9.56143 48.9071 -7.30056 46.6666 -4.51598 46.6666Z" fill="#4A8AF7"/>
<path d="M61.5795 66.6666C64.3641 66.6666 66.6249 68.9071 66.6249 71.6666C66.6249 74.4261 64.3641 76.6666 61.5795 76.6666C58.7949 76.6666 56.534 74.4261 56.534 71.6666C56.534 68.9071 58.7949 66.6666 61.5795 66.6666Z" fill="#4A8AF7"/>
<path d="M39.5477 66.6666C42.3322 66.6666 44.5931 68.9071 44.5931 71.6666C44.5931 74.4261 42.3322 76.6666 39.5477 76.6666C36.7631 76.6666 34.5022 74.4261 34.5022 71.6666C34.5022 68.9071 36.7631 66.6666 39.5477 66.6666Z" fill="#ED854A"/>
<path d="M17.5159 66.6666C20.3004 66.6666 22.5613 68.9071 22.5613 71.6666C22.5613 74.4261 20.3004 76.6666 17.5159 76.6666C14.7313 76.6666 12.4704 74.4261 12.4704 71.6666C12.4704 68.9071 14.7313 66.6666 17.5159 66.6666Z" fill="#4A8AF7"/>
<path d="M-4.51598 66.6666C-1.73139 66.6666 0.529477 68.9071 0.529477 71.6666C0.529477 74.4261 -1.73139 76.6666 -4.51598 76.6666C-7.30056 76.6666 -9.56143 74.4261 -9.56143 71.6666C-9.56143 68.9071 -7.30056 66.6666 -4.51598 66.6666Z" fill="#4A8AF7"/>
</g>
</g>
<defs>
<clipPath id="clip0_1_490">
<rect width="74" height="100" fill="white"/>
</clipPath>
</defs>
</svg>
