<svg width="24" height="24" viewBox="0 0 24 24" fill="none" xmlns="http://www.w3.org/2000/svg">
<g clip-path="url(#clip0_1_811)">
<path d="M12.1352 14.1129C13.3117 14.1129 14.2654 13.1653 14.2654 11.9963C14.2654 10.8274 13.3117 9.87976 12.1352 9.87976C10.9588 9.87976 10.0051 10.8274 10.0051 11.9963C10.0051 13.1653 10.9588 14.1129 12.1352 14.1129Z" fill="white"/>
<path d="M12.1395 16.3333C18.4521 16.3333 23.5694 14.3918 23.5694 11.9969C23.5694 9.60194 18.4521 7.66046 12.1395 7.66046C5.82685 7.66046 0.709473 9.60194 0.709473 11.9969C0.709473 14.3918 5.82685 16.3333 12.1395 16.3333Z" stroke="white" stroke-width="0.95376"/>
<path d="M8.36189 14.1647C11.5182 19.5968 15.769 23.0297 17.8563 21.8322C19.9437 20.6347 19.0771 15.2604 15.9208 9.82826C12.7645 4.39616 8.51374 0.963308 6.42639 2.16077C4.33904 3.35824 5.20559 8.73257 8.36189 14.1647Z" stroke="white" stroke-width="0.95376"/>
<path d="M8.3597 9.82826C5.2034 15.2604 4.33684 20.6347 6.42419 21.8322C8.51155 23.0297 12.7624 19.5968 15.9187 14.1647C19.075 8.73257 19.9416 3.35824 17.8542 2.16077C15.7669 0.963307 11.516 4.39615 8.3597 9.82826Z" stroke="white" stroke-width="0.95376"/>
</g>
<defs>
<clipPath id="clip0_1_811">
<rect width="24" height="24" fill="white"/>
</clipPath>
</defs>
</svg>
