<svg width="144" height="253" viewBox="0 0 144 253" fill="none" xmlns="http://www.w3.org/2000/svg">
<g clip-path="url(#clip0_1_679)">
<mask id="mask0_1_679" style="mask-type:luminance" maskUnits="userSpaceOnUse" x="0" y="0" width="144" height="253">
<path d="M144 0H0V253H144V0Z" fill="white"/>
</mask>
<g mask="url(#mask0_1_679)">
<path d="M141.943 51.3393H109.44C98.7602 51.3393 90.1029 59.9815 90.1029 70.6429V78.8571C90.1029 97.2309 75.1828 112.125 56.7772 112.125H-0.822845V98.1607H56.7772C67.457 98.1607 76.1143 89.5185 76.1143 78.8571V70.6429C76.1143 52.2691 91.0343 37.375 109.44 37.375H141.943V51.3393Z" fill="#26272D"/>
<path d="M143.589 196.732H109.44C98.7602 196.732 90.1029 188.09 90.1029 177.429V170.857C90.1029 152.483 75.1829 137.589 56.7772 137.589H-0.8228V151.554H56.7772C67.4571 151.554 76.1143 160.196 76.1143 170.857V177.429C76.1143 195.802 91.0344 210.696 109.44 210.696H143.589V196.732Z" fill="#26272D"/>
<path d="M143.589 131.839H-0.8228V117.875H143.589V131.839Z" fill="#26272D"/>
<path d="M129.338 198.873C132.063 198.873 134.275 201.081 134.275 203.801C134.275 206.522 132.063 208.73 129.338 208.73C126.613 208.73 124.401 206.522 124.401 203.801C124.401 201.081 126.613 198.873 129.338 198.873Z" fill="#7D33FF"/>
<path d="M101.43 197.777C104.155 197.777 106.368 199.985 106.368 202.705C106.368 205.425 104.155 207.634 101.43 207.634C98.7057 207.634 96.4933 205.425 96.4933 202.705C96.4933 199.985 98.7057 197.777 101.43 197.777Z" fill="#7D33FF"/>
<path d="M83.6105 178.488C86.3354 178.488 88.5477 180.696 88.5477 183.416C88.5477 186.137 86.3354 188.345 83.6105 188.345C80.8857 188.345 78.6734 186.137 78.6734 183.416C78.6734 180.696 80.8857 178.488 83.6105 178.488Z" fill="#7D33FF"/>
<path d="M80.7857 154.869C83.5105 154.869 85.7228 157.077 85.7228 159.798C85.7228 162.518 83.5105 164.726 80.7857 164.726C78.0608 164.726 75.8485 162.518 75.8485 159.798C75.8485 157.077 78.0608 154.869 80.7857 154.869Z" fill="#7D33FF"/>
<path d="M63.9439 140.121C66.6687 140.121 68.8811 142.329 68.8811 145.049C68.8811 147.769 66.6687 149.978 63.9439 149.978C61.2191 149.978 59.0068 147.769 59.0068 145.049C59.0068 142.329 61.2191 140.121 63.9439 140.121Z" fill="#7D33FF"/>
<path d="M32.985 139.626C35.7098 139.626 37.9221 141.835 37.9221 144.555C37.9221 147.275 35.7098 149.483 32.985 149.483C30.2602 149.483 28.0479 147.275 28.0479 144.555C28.0479 141.835 30.2602 139.626 32.985 139.626Z" fill="#7D33FF"/>
<path d="M0.845163 139.639C3.56997 139.639 5.78231 141.847 5.78231 144.567C5.78231 147.287 3.56997 149.496 0.845163 149.496C-1.87965 149.496 -4.09198 147.287 -4.09198 144.567C-4.09198 141.847 -1.87965 139.639 0.845163 139.639Z" fill="#7D33FF"/>
<path d="M147.84 119.929C150.565 119.929 152.778 122.137 152.778 124.857C152.778 127.577 150.565 129.786 147.84 129.786C145.116 129.786 142.903 127.577 142.903 124.857C142.903 122.137 145.116 119.929 147.84 119.929Z" fill="#7D33FF"/>
<path d="M126.282 119.929C129.006 119.929 131.219 122.137 131.219 124.857C131.219 127.577 129.006 129.786 126.282 129.786C123.557 129.786 121.344 127.577 121.344 124.857C121.344 122.137 123.557 119.929 126.282 119.929Z" fill="#7D33FF"/>
<path d="M104.723 119.929C107.448 119.929 109.66 122.137 109.66 124.857C109.66 127.577 107.448 129.786 104.723 129.786C101.998 129.786 99.7856 127.577 99.7856 124.857C99.7856 122.137 101.998 119.929 104.723 119.929Z" fill="#7D33FF"/>
<path d="M83.1638 119.929C85.8886 119.929 88.101 122.137 88.101 124.857C88.101 127.577 85.8886 129.786 83.1638 129.786C80.439 129.786 78.2267 127.577 78.2267 124.857C78.2267 122.137 80.439 119.929 83.1638 119.929Z" fill="#7D33FF"/>
<path d="M61.605 119.929C64.3298 119.929 66.5421 122.137 66.5421 124.857C66.5421 127.577 64.3298 129.786 61.605 129.786C58.8802 129.786 56.6678 127.577 56.6678 124.857C56.6678 122.137 58.8802 119.929 61.605 119.929Z" fill="#7D33FF"/>
<path d="M40.0462 119.929C42.771 119.929 44.9833 122.137 44.9833 124.857C44.9833 127.577 42.771 129.786 40.0462 129.786C37.3213 129.786 35.109 127.577 35.109 124.857C35.109 122.137 37.3213 119.929 40.0462 119.929Z" fill="#7D33FF"/>
<path d="M18.4873 119.929C21.2121 119.929 23.4244 122.137 23.4244 124.857C23.4244 127.577 21.2121 129.786 18.4873 129.786C15.7624 129.786 13.5501 127.577 13.5501 124.857C13.5501 122.137 15.7624 119.929 18.4873 119.929Z" fill="#7D33FF"/>
<path d="M-3.07159 119.929C-0.346776 119.929 1.86556 122.137 1.86556 124.857C1.86556 127.577 -0.346776 129.786 -3.07159 129.786C-5.79639 129.786 -8.00873 127.577 -8.00873 124.857C-8.00873 122.137 -5.79639 119.929 -3.07159 119.929Z" fill="#7D33FF"/>
<path d="M129.262 39.4286C131.986 39.4286 134.199 41.6371 134.199 44.3571C134.199 47.0772 131.986 49.2857 129.262 49.2857C126.537 49.2857 124.324 47.0772 124.324 44.3571C124.324 41.6371 126.537 39.4286 129.262 39.4286Z" fill="#7D33FF"/>
<path d="M100.909 40.6616C103.634 40.6616 105.847 42.8701 105.847 45.5902C105.847 48.3103 103.634 50.5188 100.909 50.5188C98.1847 50.5188 95.9724 48.3103 95.9724 45.5902C95.9724 42.8701 98.1847 40.6616 100.909 40.6616Z" fill="#7D33FF"/>
<path d="M83.1474 62.5244C85.8722 62.5244 88.0846 64.7329 88.0846 67.453C88.0846 70.1731 85.8722 72.3816 83.1474 72.3816C80.4226 72.3816 78.2103 70.1731 78.2103 67.453C78.2103 64.7329 80.4226 62.5244 83.1474 62.5244Z" fill="#7D33FF"/>
<path d="M77.9387 90.0441C80.6635 90.0441 82.8758 92.2526 82.8758 94.9726C82.8758 97.6927 80.6635 99.9012 77.9387 99.9012C75.2139 99.9012 73.0015 97.6927 73.0015 94.9726C73.0015 92.2526 75.2139 90.0441 77.9387 90.0441Z" fill="#7D33FF"/>
<path d="M60.3554 100.107C63.0802 100.107 65.2925 102.315 65.2925 105.035C65.2925 107.755 63.0802 109.964 60.3554 109.964C57.6305 109.964 55.4182 107.755 55.4182 105.035C55.4182 102.315 57.6305 100.107 60.3554 100.107Z" fill="#7D33FF"/>
<path d="M31.0447 100.13C33.7696 100.13 35.9819 102.338 35.9819 105.058C35.9819 107.778 33.7696 109.987 31.0447 109.987C28.3199 109.987 26.1076 107.778 26.1076 105.058C26.1076 102.338 28.3199 100.13 31.0447 100.13Z" fill="#7D33FF"/>
<path d="M0.452768 100.193C3.17758 100.193 5.38991 102.401 5.38991 105.121C5.38991 107.841 3.17758 110.05 0.452768 110.05C-2.27204 110.05 -4.48438 107.841 -4.48438 105.121C-4.48438 102.401 -2.27204 100.193 0.452768 100.193Z" fill="#7D33FF"/>
</g>
</g>
<defs>
<clipPath id="clip0_1_679">
<rect width="144" height="253" fill="white"/>
</clipPath>
</defs>
</svg>
