<svg width="74" height="100" viewBox="0 0 74 100" fill="none" xmlns="http://www.w3.org/2000/svg">
<g clip-path="url(#clip0_1_580)">
<mask id="mask0_1_580" style="mask-type:luminance" maskUnits="userSpaceOnUse" x="0" y="0" width="74" height="100">
<path d="M74 0H0V100H74V0Z" fill="white"/>
</mask>
<g mask="url(#mask0_1_580)">
<path d="M0 58.75H74V44.5833H0V58.75Z" fill="#101416"/>
<path d="M0 38.75H74V24.5833H0V38.75Z" fill="#101416"/>
<path d="M0 78.75H74V64.5833H0V78.75Z" fill="#101416"/>
<path d="M61.5795 26.6666C64.3641 26.6666 66.625 28.9071 66.625 31.6666C66.625 34.4261 64.3641 36.6666 61.5795 36.6666C58.7949 36.6666 56.5341 34.4261 56.5341 31.6666C56.5341 28.9071 58.7949 26.6666 61.5795 26.6666Z" fill="#4A8AF7"/>
<path d="M39.5477 26.6666C42.3323 26.6666 44.5932 28.9071 44.5932 31.6666C44.5932 34.4261 42.3323 36.6666 39.5477 36.6666C36.7631 36.6666 34.5023 34.4261 34.5023 31.6666C34.5023 28.9071 36.7631 26.6666 39.5477 26.6666Z" fill="#4A8AF7"/>
<path d="M17.5159 26.6666C20.3004 26.6666 22.5613 28.9071 22.5613 31.6666C22.5613 34.4261 20.3004 36.6666 17.5159 36.6666C14.7313 36.6666 12.4704 34.4261 12.4704 31.6666C12.4704 28.9071 14.7313 26.6666 17.5159 26.6666Z" fill="#4A8AF7"/>
<path d="M-4.51595 26.6666C-1.73136 26.6666 0.529508 28.9071 0.529508 31.6666C0.529508 34.4261 -1.73136 36.6666 -4.51595 36.6666C-7.30053 36.6666 -9.5614 34.4261 -9.5614 31.6666C-9.5614 28.9071 -7.30053 26.6666 -4.51595 26.6666Z" fill="#4A8AF7"/>
<path d="M61.5795 46.6666C64.3641 46.6666 66.625 48.9071 66.625 51.6666C66.625 54.4261 64.3641 56.6666 61.5795 56.6666C58.7949 56.6666 56.5341 54.4261 56.5341 51.6666C56.5341 48.9071 58.7949 46.6666 61.5795 46.6666Z" fill="#ED854A"/>
<path d="M39.5477 46.6666C42.3323 46.6666 44.5932 48.9071 44.5932 51.6666C44.5932 54.4261 42.3323 56.6666 39.5477 56.6666C36.7631 56.6666 34.5023 54.4261 34.5023 51.6666C34.5023 48.9071 36.7631 46.6666 39.5477 46.6666Z" fill="#ED854A"/>
<path d="M17.5159 46.6666C20.3004 46.6666 22.5613 48.9071 22.5613 51.6666C22.5613 54.4261 20.3004 56.6666 17.5159 56.6666C14.7313 56.6666 12.4704 54.4261 12.4704 51.6666C12.4704 48.9071 14.7313 46.6666 17.5159 46.6666Z" fill="#ED854A"/>
<path d="M-4.51595 46.6666C-1.73136 46.6666 0.529508 48.9071 0.529508 51.6666C0.529508 54.4261 -1.73136 56.6666 -4.51595 56.6666C-7.30053 56.6666 -9.5614 54.4261 -9.5614 51.6666C-9.5614 48.9071 -7.30053 46.6666 -4.51595 46.6666Z" fill="#ED854A"/>
<path d="M61.5795 66.6666C64.3641 66.6666 66.625 68.9071 66.625 71.6666C66.625 74.4261 64.3641 76.6666 61.5795 76.6666C58.7949 76.6666 56.5341 74.4261 56.5341 71.6666C56.5341 68.9071 58.7949 66.6666 61.5795 66.6666Z" fill="#57AC84"/>
<path d="M39.5477 66.6666C42.3323 66.6666 44.5932 68.9071 44.5932 71.6666C44.5932 74.4261 42.3323 76.6666 39.5477 76.6666C36.7631 76.6666 34.5023 74.4261 34.5023 71.6666C34.5023 68.9071 36.7631 66.6666 39.5477 66.6666Z" fill="#57AC84"/>
<path d="M17.5159 66.6666C20.3004 66.6666 22.5613 68.9071 22.5613 71.6666C22.5613 74.4261 20.3004 76.6666 17.5159 76.6666C14.7313 76.6666 12.4704 74.4261 12.4704 71.6666C12.4704 68.9071 14.7313 66.6666 17.5159 66.6666Z" fill="#57AC84"/>
<path d="M-4.51595 66.6666C-1.73136 66.6666 0.529508 68.9071 0.529508 71.6666C0.529508 74.4261 -1.73136 76.6666 -4.51595 76.6666C-7.30053 76.6666 -9.5614 74.4261 -9.5614 71.6666C-9.5614 68.9071 -7.30053 66.6666 -4.51595 66.6666Z" fill="#57AC84"/>
</g>
</g>
<defs>
<clipPath id="clip0_1_580">
<rect width="74" height="100" fill="white"/>
</clipPath>
</defs>
</svg>
