<svg width="144" height="249" viewBox="0 0 144 249" fill="none" xmlns="http://www.w3.org/2000/svg">
<g clip-path="url(#clip0_1_359)">
<mask id="mask0_1_359" style="mask-type:luminance" maskUnits="userSpaceOnUse" x="0" y="0" width="144" height="249">
<path d="M144 0H0V249H144V0Z" fill="white"/>
</mask>
<g mask="url(#mask0_1_359)">
<path d="M0 49.7192H44.8989C55.3987 49.7192 63.9101 58.2248 63.9101 68.7175V76.8019C63.9101 94.8852 78.5787 109.544 96.6742 109.544H144.404V95.8003H96.6742C86.1743 95.8003 77.6629 87.2947 77.6629 76.8019V68.7175C77.6629 50.6343 62.9943 35.9756 44.8989 35.9756H0V49.7192Z" fill="#26272D"/>
<path d="M77.6629 167.347C77.6629 156.855 86.1743 148.349 96.6742 148.349H144.404V134.606H96.6742C78.5787 134.606 63.9101 149.264 63.9101 167.347V173.815C63.9101 184.308 55.3987 192.813 44.8989 192.813H0V206.557H44.8989C62.9943 206.557 77.6629 191.898 77.6629 173.815V167.347Z" fill="#26272D"/>
<path d="M0 128.946H144.404V115.203H0V128.946Z" fill="#26272D"/>
<path d="M126.628 97.89C129.306 97.89 131.481 100.064 131.481 102.741C131.481 105.418 129.306 107.591 126.628 107.591C123.949 107.591 121.774 105.418 121.774 102.741C121.774 100.064 123.949 97.89 126.628 97.89Z" fill="#4A8AF7"/>
<path d="M98.9186 97.8883C101.598 97.8883 103.773 100.062 103.773 102.739C103.773 105.416 101.598 107.59 98.9186 107.59C96.2397 107.59 94.0647 105.416 94.0647 102.739C94.0647 100.062 96.2397 97.8883 98.9186 97.8883Z" fill="#4A8AF7"/>
<path d="M75.4808 86.993C78.1597 86.993 80.3348 89.1666 80.3348 91.8436C80.3348 94.5207 78.1597 96.6943 75.4808 96.6943C72.8019 96.6943 70.6269 94.5207 70.6269 91.8436C70.6269 89.1666 72.8019 86.993 75.4808 86.993Z" fill="#ED854A"/>
<path d="M70.4075 61.3079C73.0864 61.3079 75.2615 63.4814 75.2615 66.1585C75.2615 68.8356 73.0864 71.0092 70.4075 71.0092C67.7286 71.0092 65.5536 68.8356 65.5536 66.1585C65.5536 63.4814 67.7286 61.3079 70.4075 61.3079Z" fill="#4A8AF7"/>
<path d="M59.7278 41.9577C62.4067 41.9577 64.5817 44.1313 64.5817 46.8084C64.5817 49.4854 62.4067 51.659 59.7278 51.659C57.0489 51.659 54.8739 49.4854 54.8739 46.8084C54.8739 44.1313 57.0489 41.9577 59.7278 41.9577Z" fill="#4A8AF7"/>
<path d="M35.6252 37.9792C38.3041 37.9792 40.4791 40.1528 40.4791 42.8298C40.4791 45.5069 38.3041 47.6805 35.6252 47.6805C32.9463 47.6805 30.7713 45.5069 30.7713 42.8298C30.7713 40.1528 32.9463 37.9792 35.6252 37.9792Z" fill="#ED854A"/>
<path d="M8.59542 37.987C11.2743 37.987 13.4494 40.1605 13.4494 42.8376C13.4494 45.5147 11.2743 47.6883 8.59542 47.6883C5.91653 47.6883 3.74149 45.5147 3.74149 42.8376C3.74149 40.1605 5.91653 37.987 8.59542 37.987Z" fill="#4A8AF7"/>
<path d="M126.514 136.222C129.193 136.222 131.368 138.396 131.368 141.073C131.368 143.75 129.193 145.924 126.514 145.924C123.835 145.924 121.66 143.75 121.66 141.073C121.66 138.396 123.835 136.222 126.514 136.222Z" fill="#57AC84"/>
<path d="M98.9075 136.222C101.586 136.222 103.761 138.396 103.761 141.073C103.761 143.75 101.586 145.924 98.9075 145.924C96.2286 145.924 94.0536 143.75 94.0536 141.073C94.0536 138.396 96.2286 136.222 98.9075 136.222Z" fill="#57AC84"/>
<path d="M75.0126 147.978C77.6915 147.978 79.8666 150.151 79.8666 152.829C79.8666 155.506 77.6915 157.679 75.0126 157.679C72.3337 157.679 70.1587 155.506 70.1587 152.829C70.1587 150.151 72.3337 147.978 75.0126 147.978Z" fill="#4A8AF7"/>
<path d="M69.9723 178.133C72.6512 178.133 74.8262 180.307 74.8262 182.984C74.8262 185.661 72.6512 187.834 69.9723 187.834C67.2934 187.834 65.1184 185.661 65.1184 182.984C65.1184 180.307 67.2934 178.133 69.9723 178.133Z" fill="#57AC84"/>
<path d="M55.6674 192.077C58.3463 192.077 60.5213 194.251 60.5213 196.928C60.5213 199.605 58.3463 201.779 55.6674 201.779C52.9885 201.779 50.8134 199.605 50.8134 196.928C50.8134 194.251 52.9885 192.077 55.6674 192.077Z" fill="#57AC84"/>
<path d="M33.1473 194.341C35.8262 194.341 38.0012 196.514 38.0012 199.191C38.0012 201.868 35.8262 204.042 33.1473 204.042C30.4684 204.042 28.2934 201.868 28.2934 199.191C28.2934 196.514 30.4684 194.341 33.1473 194.341Z" fill="#4A8AF7"/>
<path d="M7.63907 194.381C10.318 194.381 12.493 196.554 12.493 199.231C12.493 201.908 10.318 204.082 7.63907 204.082C4.96019 204.082 2.78514 201.908 2.78514 199.231C2.78514 196.554 4.96019 194.381 7.63907 194.381Z" fill="#57AC84"/>
<path d="M132.102 117.224C134.78 117.224 136.955 119.398 136.955 122.075C136.955 124.752 134.78 126.925 132.102 126.925C129.423 126.925 127.248 124.752 127.248 122.075C127.248 119.398 129.423 117.224 132.102 117.224Z" fill="#ED854A"/>
<path d="M110.906 117.224C113.585 117.224 115.76 119.398 115.76 122.075C115.76 124.752 113.585 126.925 110.906 126.925C108.227 126.925 106.052 124.752 106.052 122.075C106.052 119.398 108.227 117.224 110.906 117.224Z" fill="#57AC84"/>
<path d="M89.7105 117.224C92.3894 117.224 94.5644 119.398 94.5644 122.075C94.5644 124.752 92.3894 126.925 89.7105 126.925C87.0316 126.925 84.8566 124.752 84.8566 122.075C84.8566 119.398 87.0316 117.224 89.7105 117.224Z" fill="#ED854A"/>
<path d="M68.515 117.224C71.1939 117.224 73.3689 119.398 73.3689 122.075C73.3689 124.752 71.1939 126.925 68.515 126.925C65.8361 126.925 63.6611 124.752 63.6611 122.075C63.6611 119.398 65.8361 117.224 68.515 117.224Z" fill="#ED854A"/>
<path d="M47.3195 117.224C49.9984 117.224 52.1734 119.398 52.1734 122.075C52.1734 124.752 49.9984 126.925 47.3195 126.925C44.6406 126.925 42.4656 124.752 42.4656 122.075C42.4656 119.398 44.6406 117.224 47.3195 117.224Z" fill="#57AC84"/>
<path d="M26.124 117.224C28.8029 117.224 30.9779 119.398 30.9779 122.075C30.9779 124.752 28.8029 126.925 26.124 126.925C23.4451 126.925 21.2701 124.752 21.2701 122.075C21.2701 119.398 23.4451 117.224 26.124 117.224Z" fill="#ED854A"/>
<path d="M4.92849 117.224C7.60737 117.224 9.78242 119.398 9.78242 122.075C9.78242 124.752 7.60737 126.925 4.92849 126.925C2.2496 126.925 0.0745544 124.752 0.0745544 122.075C0.0745544 119.398 2.2496 117.224 4.92849 117.224Z" fill="#ED854A"/>
</g>
</g>
<defs>
<clipPath id="clip0_1_359">
<rect width="144" height="249" fill="white"/>
</clipPath>
</defs>
</svg>
