<svg width="114" height="24" viewBox="0 0 114 24" fill="none" xmlns="http://www.w3.org/2000/svg">
<g clip-path="url(#clip0_1_206)">
<path d="M7.90358 15.475C10.1925 17.5981 11.625 20.6317 11.625 24H22.5C22.5 16.8762 19.1893 10.5257 14.0227 6.40305L7.90358 15.475Z" fill="#742BF2"/>
<path d="M11.2345 4.50116C7.92859 2.59228 4.09185 1.5 0 1.5V12.375C1.8386 12.375 3.57752 12.8018 5.12304 13.5618L11.2345 4.50116Z" fill="#742BF2"/>
<path d="M0.5 27C-1.98528 27 -4 24.9853 -4 22.5C-4 20.0147 -1.98528 18 0.5 18C2.98528 18 5 20.0147 5 22.5C5 24.9853 2.98528 27 0.5 27Z" fill="white"/>
<path d="M78.745 23.7955C78.049 23.7955 77.4335 23.6818 76.8984 23.4545C76.3681 23.2225 75.9515 22.8722 75.6484 22.4034C75.3454 21.9347 75.1939 21.3381 75.1939 20.6136C75.1939 20.017 75.2957 19.508 75.4993 19.0866C75.7029 18.6605 75.987 18.3125 76.3516 18.0426C76.7161 17.7727 77.1399 17.5668 77.6229 17.4247C78.1106 17.2827 78.6361 17.1903 79.1996 17.1477C79.8104 17.1004 80.3004 17.0436 80.6697 16.9773C81.0438 16.9062 81.3137 16.8092 81.4794 16.6861C81.6451 16.5582 81.728 16.3902 81.728 16.1818V16.1534C81.728 15.8693 81.6191 15.6515 81.4013 15.5C81.1835 15.3485 80.9041 15.2727 80.5632 15.2727C80.1892 15.2727 79.8838 15.3556 79.647 15.5213C79.415 15.6823 79.2753 15.9309 79.228 16.267H75.62C75.6674 15.6042 75.8781 14.9934 76.2521 14.4347C76.6309 13.8712 77.1825 13.4214 77.907 13.0852C78.6314 12.7443 79.5357 12.5739 80.62 12.5739C81.4013 12.5739 82.102 12.6662 82.7223 12.8509C83.3426 13.0308 83.8705 13.2841 84.3061 13.6108C84.7417 13.9328 85.0732 14.3116 85.3004 14.7472C85.5324 15.178 85.6484 15.6468 85.6484 16.1534V23.625H81.9837V22.0909H81.8984C81.6806 22.4981 81.4155 22.8272 81.103 23.0781C80.7952 23.3291 80.4425 23.5114 80.0447 23.625C79.6518 23.7386 79.2185 23.7955 78.745 23.7955ZM80.0234 21.3239C80.3217 21.3239 80.6011 21.2623 80.8615 21.1392C81.1267 21.0161 81.3421 20.8385 81.5078 20.6065C81.6735 20.3745 81.7564 20.0928 81.7564 19.7614V18.8523C81.6522 18.8949 81.541 18.9351 81.4226 18.973C81.3089 19.0109 81.1858 19.0464 81.0533 19.0795C80.9254 19.1127 80.7881 19.1435 80.6413 19.1719C80.4993 19.2003 80.3501 19.2263 80.1939 19.25C79.8909 19.2973 79.6423 19.3755 79.4482 19.4844C79.2588 19.5885 79.1167 19.7188 79.022 19.875C78.9321 20.0265 78.8871 20.197 78.8871 20.3864C78.8871 20.6894 78.9936 20.9214 79.2067 21.0824C79.4197 21.2434 79.692 21.3239 80.0234 21.3239Z" fill="#7D33FF"/>
<path d="M69.7873 23.625V12.7159H73.7077V23.625H69.7873ZM71.7475 11.5795C71.2172 11.5795 70.7627 11.4044 70.3839 11.054C70.0051 10.7036 69.8157 10.2822 69.8157 9.78977C69.8157 9.29735 70.0051 8.87595 70.3839 8.52557C70.7627 8.17519 71.2172 8 71.7475 8C72.2826 8 72.7371 8.17519 73.1112 8.52557C73.4899 8.87595 73.6793 9.29735 73.6793 9.78977C73.6793 10.2822 73.4899 10.7036 73.1112 11.054C72.7371 11.4044 72.2826 11.5795 71.7475 11.5795Z" fill="#7D33FF"/>
<path d="M60.6591 23.625H55.0625V9.07954H60.6023C62.0985 9.07954 63.3911 9.37074 64.4801 9.95312C65.5739 10.5308 66.4167 11.3641 67.0085 12.4531C67.6051 13.5374 67.9034 14.8371 67.9034 16.3523C67.9034 17.8674 67.6075 19.1695 67.0156 20.2585C66.4238 21.3428 65.5857 22.1761 64.5014 22.7585C63.4171 23.3362 62.1364 23.625 60.6591 23.625ZM59.0114 20.2727H60.517C61.2367 20.2727 61.8499 20.1567 62.3565 19.9247C62.8679 19.6927 63.2562 19.2926 63.5213 18.7244C63.7912 18.1562 63.9261 17.3655 63.9261 16.3523C63.9261 15.339 63.7888 14.5483 63.5142 13.9801C63.2443 13.4119 62.8466 13.0118 62.321 12.7798C61.8002 12.5478 61.161 12.4318 60.4034 12.4318H59.0114V20.2727Z" fill="#7D33FF"/>
<path d="M47.875 23.8239C46.6913 23.8239 45.678 23.5895 44.8352 23.1207C43.9924 22.6473 43.3461 21.9891 42.8963 21.1463C42.4465 20.2988 42.2216 19.3163 42.2216 18.1989C42.2216 17.0814 42.4465 16.1013 42.8963 15.2585C43.3461 14.411 43.9924 13.7528 44.8352 13.2841C45.678 12.8106 46.6913 12.5739 47.875 12.5739C49.0587 12.5739 50.072 12.8106 50.9148 13.2841C51.7576 13.7528 52.4039 14.411 52.8537 15.2585C53.3035 16.1013 53.5284 17.0814 53.5284 18.1989C53.5284 19.3163 53.3035 20.2988 52.8537 21.1463C52.4039 21.9891 51.7576 22.6473 50.9148 23.1207C50.072 23.5895 49.0587 23.8239 47.875 23.8239ZM47.9034 20.9261C48.2348 20.9261 48.5213 20.8149 48.7628 20.5923C49.0043 20.3698 49.1913 20.0526 49.3239 19.6406C49.4564 19.2287 49.5227 18.7386 49.5227 18.1705C49.5227 17.5975 49.4564 17.1075 49.3239 16.7003C49.1913 16.2884 49.0043 15.9711 48.7628 15.7486C48.5213 15.526 48.2348 15.4148 47.9034 15.4148C47.553 15.4148 47.2524 15.526 47.0014 15.7486C46.7505 15.9711 46.5587 16.2884 46.4261 16.7003C46.2936 17.1075 46.2273 17.5975 46.2273 18.1705C46.2273 18.7386 46.2936 19.2287 46.4261 19.6406C46.5587 20.0526 46.7505 20.3698 47.0014 20.5923C47.2524 20.8149 47.553 20.9261 47.9034 20.9261Z" fill="white"/>
<path d="M28.5 23.625L26 9.07954H35.7159C36.7955 9.07954 37.7401 9.27604 38.5497 9.66903C39.3594 10.062 39.9891 10.6278 40.4389 11.3665C40.8887 12.1051 41.1136 12.9905 41.1136 14.0227C41.1136 15.0644 40.8816 15.9427 40.4176 16.6577C39.9583 17.3726 39.312 17.9124 38.4787 18.277C37.6501 18.6416 36.6818 18.8239 35.5739 18.8239H31.8239V15.7557H34.7784C35.2424 15.7557 35.6378 15.6989 35.9645 15.5852C36.2959 15.4669 36.5492 15.2798 36.7244 15.0241C36.9044 14.7685 36.9943 14.4347 36.9943 14.0227C36.9943 13.6061 36.9044 13.2675 36.7244 13.0071C36.5492 12.742 36.2959 12.5478 35.9645 12.4247C35.6378 12.2969 35.2424 12.233 34.7784 12.233H33.3864V23.625H28.5ZM37.9602 16.9489L41.5966 23.625H37.3068L33.7557 16.9489H37.9602Z" fill="white"/>
</g>
<defs>
<clipPath id="clip0_1_206">
<rect width="114" height="24" fill="white"/>
</clipPath>
</defs>
</svg>
