<svg width="166" height="35" viewBox="0 0 166 35" fill="none" xmlns="http://www.w3.org/2000/svg">
<g clip-path="url(#clip0_3502_19)">
<path d="M11.5087 22.5677C14.8418 25.6639 16.9276 30.088 16.9276 35H32.7632C32.7632 24.6111 27.9423 15.35 20.419 9.33777L11.5087 22.5677Z" fill="white"/>
<path d="M16.3591 6.5642C11.5451 3.78041 5.95831 2.1875 0 2.1875V18.0469C2.67726 18.0469 5.20937 18.6693 7.45987 19.7777L16.3591 6.5642Z" fill="white" fill-opacity="0.94902"/>
<path d="M0.728069 39.375C-2.89085 39.375 -5.82456 36.4369 -5.82456 32.8125C-5.82456 29.1881 -2.89085 26.25 0.728069 26.25C4.34699 26.25 7.2807 29.1881 7.2807 32.8125C7.2807 36.4369 4.34699 39.375 0.728069 39.375Z" fill="white"/>
<path d="M114.664 34.7017C113.65 34.7017 112.754 34.536 111.975 34.2045C111.203 33.8662 110.596 33.3552 110.155 32.6716C109.713 31.988 109.493 31.118 109.493 30.0616C109.493 29.1915 109.641 28.4492 109.937 27.8347C110.234 27.2132 110.648 26.7057 111.179 26.3121C111.709 25.9186 112.326 25.6182 113.03 25.411C113.74 25.2039 114.505 25.0692 115.326 25.0071C116.215 24.9381 116.929 24.8552 117.466 24.7585C118.011 24.6549 118.404 24.5134 118.645 24.3339C118.887 24.1474 119.007 23.9023 119.007 23.5985V23.5571C119.007 23.1428 118.849 22.8251 118.532 22.6042C118.214 22.3832 117.808 22.2727 117.311 22.2727C116.767 22.2727 116.322 22.3936 115.977 22.6352C115.639 22.87 115.436 23.2325 115.367 23.7228H110.113C110.182 22.7561 110.489 21.8653 111.034 21.0505C111.585 20.2288 112.389 19.5729 113.443 19.0826C114.498 18.5855 115.815 18.3369 117.394 18.3369C118.532 18.3369 119.552 18.4715 120.455 18.7408C121.358 19.0032 122.127 19.3726 122.761 19.8491C123.396 20.3186 123.878 20.871 124.209 21.5063C124.547 22.1346 124.716 22.8182 124.716 23.5571V34.4531H119.38V32.2159H119.256C118.938 32.8097 118.552 33.2896 118.097 33.6556C117.649 34.0216 117.135 34.2874 116.556 34.4531C115.984 34.6188 115.353 34.7017 114.664 34.7017ZM116.525 31.0973C116.96 31.0973 117.366 31.0075 117.746 30.828C118.132 30.6485 118.445 30.3895 118.687 30.0512C118.928 29.7128 119.049 29.302 119.049 28.8187V27.4929C118.897 27.555 118.735 27.6137 118.563 27.669C118.397 27.7242 118.218 27.776 118.025 27.8243C117.839 27.8727 117.639 27.9176 117.425 27.959C117.218 28.0004 117.001 28.0384 116.773 28.0729C116.332 28.142 115.97 28.2559 115.688 28.4147C115.412 28.5666 115.205 28.7565 115.067 28.9844C114.936 29.2053 114.871 29.4539 114.871 29.7301C114.871 30.172 115.026 30.5104 115.336 30.7451C115.646 30.9799 116.043 31.0973 116.525 31.0973Z" fill="white"/>
<path d="M101.62 34.4531V18.544H107.329V34.4531H101.62ZM104.474 16.8868C103.702 16.8868 103.04 16.6313 102.489 16.1204C101.937 15.6094 101.661 14.9949 101.661 14.2767C101.661 13.5586 101.937 12.9441 102.489 12.4331C103.04 11.9221 103.702 11.6667 104.474 11.6667C105.254 11.6667 105.915 11.9221 106.46 12.4331C107.012 12.9441 107.287 13.5586 107.287 14.2767C107.287 14.9949 107.012 15.6094 106.46 16.1204C105.915 16.6313 105.254 16.8868 104.474 16.8868Z" fill="white"/>
<path d="M88.3281 34.4531H80.1787V13.241H88.2454C90.4241 13.241 92.3063 13.6657 93.8921 14.515C95.4847 15.3574 96.712 16.5727 97.5738 18.1608C98.4425 19.742 98.8769 21.6375 98.8769 23.8471C98.8769 26.0567 98.446 27.9555 97.5841 29.5437C96.7223 31.1249 95.502 32.3402 93.9231 33.1895C92.3442 34.0319 90.4792 34.4531 88.3281 34.4531ZM85.9288 29.5644H88.1213C89.1693 29.5644 90.0621 29.3952 90.7998 29.0569C91.5445 28.7185 92.1098 28.1351 92.4959 27.3065C92.8889 26.4779 93.0854 25.3247 93.0854 23.8471C93.0854 22.3694 92.8855 21.2163 92.4856 20.3877C92.0926 19.5591 91.5134 18.9756 90.7481 18.6372C89.9897 18.2989 89.059 18.1297 87.9558 18.1297H85.9288V29.5644Z" fill="white"/>
<path d="M69.7127 34.7431C67.989 34.7431 66.5136 34.4013 65.2864 33.7177C64.0591 33.0272 63.118 32.0675 62.463 30.8384C61.808 29.6024 61.4805 28.1696 61.4805 26.54C61.4805 24.9104 61.808 23.4811 62.463 22.252C63.118 21.016 64.0591 20.0562 65.2864 19.3726C66.5136 18.6821 67.989 18.3369 69.7127 18.3369C71.4363 18.3369 72.9118 18.6821 74.139 19.3726C75.3663 20.0562 76.3074 21.016 76.9624 22.252C77.6174 23.4811 77.9448 24.9104 77.9448 26.54C77.9448 28.1696 77.6174 29.6024 76.9624 30.8384C76.3074 32.0675 75.3663 33.0272 74.139 33.7177C72.9118 34.4013 71.4363 34.7431 69.7127 34.7431ZM69.7541 30.5173C70.2367 30.5173 70.6538 30.355 71.0054 30.0305C71.3571 29.7059 71.6294 29.2433 71.8224 28.6426C72.0155 28.0418 72.112 27.3272 72.112 26.4986C72.112 25.6631 72.0155 24.9484 71.8224 24.3546C71.6294 23.7538 71.3571 23.2912 71.0054 22.9667C70.6538 22.6421 70.2367 22.4799 69.7541 22.4799C69.2439 22.4799 68.806 22.6421 68.4406 22.9667C68.0752 23.2912 67.796 23.7538 67.6029 24.3546C67.4099 24.9484 67.3134 25.6631 67.3134 26.4986C67.3134 27.3272 67.4099 28.0418 67.6029 28.6426C67.796 29.2433 68.0752 29.7059 68.4406 30.0305C68.806 30.355 69.2439 30.5173 69.7541 30.5173Z" fill="white"/>
<path d="M41.5 34.4531L37.8596 13.241H52.0073C53.5793 13.241 54.9548 13.5276 56.1338 14.1007C57.3127 14.6738 58.2297 15.4989 58.8847 16.5761C59.5397 17.6533 59.8672 18.9445 59.8672 20.4498C59.8672 21.9689 59.5294 23.2498 58.8537 24.2924C58.1849 25.3351 57.2438 26.1223 56.0303 26.6539C54.8238 27.1856 53.4138 27.4515 51.8005 27.4515H46.34V22.977H50.6422C51.3179 22.977 51.8936 22.8942 52.3693 22.7285C52.8519 22.5558 53.2208 22.2831 53.4759 21.9102C53.7379 21.5373 53.8689 21.0505 53.8689 20.4498C53.8689 19.8422 53.7379 19.3485 53.4759 18.9687C53.2208 18.582 52.8519 18.2989 52.3693 18.1194C51.8936 17.9329 51.3179 17.8397 50.6422 17.8397H48.6152V34.4531H41.5ZM55.2754 24.7171L60.5704 34.4531H54.3239L49.153 24.7171H55.2754Z" fill="white"/>
</g>
<defs>
<clipPath id="clip0_3502_19">
<rect width="166" height="35" fill="white"/>
</clipPath>
</defs>
</svg>
