<svg width="24" height="24" viewBox="0 0 24 24" fill="none" xmlns="http://www.w3.org/2000/svg">
<path d="M12 11.385C11.1753 11.385 10.469 11.091 9.881 10.503C9.293 9.91501 8.99933 9.20901 9 8.38501C9.00067 7.56101 9.29433 6.85435 9.881 6.26501C10.4677 5.67568 11.174 5.38268 12 5.38601C12.826 5.38935 13.5323 5.68268 14.119 6.26601C14.7057 6.84935 14.9993 7.55601 15 8.38601C15.0007 9.21601 14.707 9.92201 14.119 10.504C13.531 11.086 12.8247 11.379 12 11.385ZM5 18.616V16.97C5 16.5573 5.12 16.1713 5.36 15.812C5.6 15.4527 5.92333 15.1733 6.33 14.974C7.274 14.5213 8.21833 14.182 9.163 13.956C10.1077 13.73 11.0533 13.6167 12 13.616C12.9467 13.6153 13.8923 13.7287 14.837 13.956C15.7817 14.1833 16.7257 14.5227 17.669 14.974C18.0757 15.1727 18.399 15.452 18.639 15.812C18.879 16.172 18.9993 16.5577 19 16.969V18.615L5 18.616Z" fill="white"/>
</svg>
